<?xml version="1.0" encoding="UTF-8"?>
<svg id="Capa_1" xmlns="http://www.w3.org/2000/svg" version="1.1" xmlns:xlink="http://www.w3.org/1999/xlink" viewBox="0 0 1024 1024">
  <!-- Generator: Adobe Illustrator 30.2.1, SVG Export Plug-In . SVG Version: 2.1.1 Build 1)  -->
  <defs>
    <style>
      .st0 {
        fill: #1d516c;
      }

      .st1 {
        fill: #326f87;
      }

      .st2 {
        fill: #367988;
      }

      .st3 {
        fill: #39767d;
      }

      .st4 {
        fill: #49ca97;
      }

      .st5 {
        fill: #416185;
      }

      .st6 {
        fill: #52c99b;
      }

      .st7 {
        fill: #386e84;
      }

      .st8 {
        fill: #368777;
      }

      .st9 {
        fill: #2eb188;
      }

      .st10 {
        fill: #40bc5d;
      }

      .st11 {
        fill: #3d5684;
      }

      .st12 {
        fill: #318284;
      }

      .st13 {
        fill: #2dc58f;
      }

      .st14 {
        fill: #2fcd89;
      }

      .st15 {
        fill: #2c6575;
      }

      .st16 {
        fill: #2fa585;
      }

      .st17 {
        fill: #3cbe66;
      }

      .st18 {
        fill: #309182;
      }

      .st19 {
        fill: #387e77;
      }

      .st20 {
        fill: #37a16a;
      }

      .st21 {
        fill: #398089;
      }

      .st22 {
        fill: #328b89;
      }

      .st23 {
        fill: #2f3d6d;
      }

      .st24 {
        fill: #2cd08f;
      }

      .st25 {
        fill: #388c73;
      }

      .st26 {
        fill: #326286;
      }

      .st27 {
        fill: #357f83;
      }

      .st28 {
        fill: #327484;
      }

      .st29 {
        fill: #3a6c82;
      }

      .st30 {
        fill: #2a506f;
      }

      .st31 {
        fill: #329489;
      }

      .st32 {
        fill: #415c85;
      }

      .st33 {
        fill: #2fb789;
      }

      .st34 {
        fill: #228e93;
      }

      .st35 {
        fill: #376d84;
      }

      .st36 {
        fill: #2bce91;
      }

      .st37 {
        fill: #2ebc8a;
      }

      .st38 {
        fill: #2f9883;
      }

      .st39 {
        fill: #275772;
      }

      .st40 {
        fill: #3dba55;
      }

      .st41 {
        fill: #eef0f5;
      }

      .st42 {
        fill: #378376;
      }

      .st43 {
        fill: #37976e;
      }

      .st44 {
        fill: #367881;
      }

      .st45 {
        fill: #415685;
      }

      .st46 {
        fill: #2c4961;
      }

      .st47 {
        fill: #39ac65;
      }

      .st48 {
        fill: #3c5c83;
      }

      .st49 {
        fill: #32ad87;
      }

      .st50 {
        fill: #31b689;
      }

      .st51 {
        fill: #275e75;
      }

      .st52 {
        fill: #31af8c;
      }

      .st53 {
        fill: url(#Degradado_sin_nombre_4);
      }

      .st54 {
        fill: #3ac06c;
      }

      .st55 {
        fill: #30ab87;
      }

      .st56 {
        fill: #2ac68f;
      }

      .st57 {
        fill: #3c6282;
      }

      .st58 {
        fill: #326987;
      }

      .st59 {
        fill: #3c828c;
      }

      .st60 {
        fill: #387;
      }

      .st61 {
        fill: #31a58b;
      }

      .st62 {
        fill: #3b8e7a;
      }

      .st63 {
        fill: #34747f;
      }

      .st64 {
        fill: #3d4d84;
      }

      .st65 {
        fill: #2a5c75;
      }

      .st66 {
        fill: #26647b;
      }

      .st67 {
        fill: #387a7a;
      }

      .st68 {
        fill: #366e85;
      }

      .st69 {
        fill: #40bd57;
      }

      .st70 {
        fill: #2dc28c;
      }

      .st71 {
        fill: #2fbf8c;
      }

      .st72 {
        fill: #2f9f84;
      }

      .st73 {
        fill: #3e5285;
      }

      .st74 {
        fill: #368984;
      }

      .st75 {
        fill: #3bb263;
      }

      .st76 {
        fill: #339e88;
      }

      .st77 {
        fill: #349386;
      }

      .st78 {
        fill: #264561;
      }

      .st79 {
        fill: #33847c;
      }

      .st80 {
        fill: #2dc890;
      }

      .st81 {
        fill: #3db65e;
      }

      .st82 {
        fill: #3ba16f;
      }

      .st83 {
        fill: #39c173;
      }

      .st84 {
        fill: #245a75;
      }

      .st85 {
        fill: #3f7c89;
      }

      .st86 {
        fill: #32a68a;
      }

      .st87 {
        fill: #30ac8b;
      }

      .st88 {
        fill: #317c72;
      }

      .st89 {
        fill: #397088;
      }

      .st90 {
        fill: #38a667;
      }

      .st91 {
        fill: #327b88;
      }

      .st92 {
        fill: #255b77;
      }

      .st93 {
        fill: #389171;
      }

      .st94 {
        fill: #3dac6c;
      }

      .st95 {
        fill: url(#Degradado_sin_nombre_3);
      }

      .st96 {
        fill: #406e87;
      }

      .st97 {
        fill: #24667e;
      }

      .st98 {
        fill: #387c87;
      }

      .st99 {
        fill: #337c81;
      }

      .st100 {
        fill: #243e5d;
      }

      .st101 {
        fill: #329d8a;
      }

      .st102 {
        fill: #416786;
      }

      .st103 {
        fill: #2fb88d;
      }

      .st104 {
        fill: #1f8f94;
      }

      .st105 {
        fill: #2ebf8e;
      }

      .st106 {
        fill: #33a583;
      }

      .st107 {
        fill: #379a6d;
      }

      .st108 {
        fill: #369f82;
      }

      .st109 {
        fill: #3f7588;
      }

      .st110 {
        fill: #2cc98f;
      }

      .st111 {
        fill: #2fb28c;
      }

      .st112 {
        fill: #fefefe;
      }

      .st113 {
        fill: #2c4b72;
      }

      .st114 {
        fill: #30857f;
      }

      .st115 {
        fill: #33bc8f;
      }

      .st116 {
        fill: #2dbf8f;
      }

      .st117 {
        fill: #328489;
      }

      .st118 {
        fill: #313b72;
      }

      .st119 {
        fill: #3fbf95;
      }

      .st120 {
        fill: #24627a;
      }

      .st121 {
        fill: #368a90;
      }

      .st122 {
        fill: #3b6881;
      }

      .st123 {
        fill: #3aaf5f;
      }

      .st124 {
        fill: #307273;
      }

      .st125 {
        fill: #3a727f;
      }

      .st126 {
        fill: #f7f7f7;
      }

      .st127 {
        fill: #308981;
      }

      .st128 {
        fill: #2b8c92;
      }

      .st129 {
        fill: #36c47a;
      }

      .st130 {
        fill: #3a858a;
      }

      .st131 {
        fill: #2e3467;
      }

      .st132 {
        fill: #327588;
      }

      .st133 {
        fill: #2f6b74;
      }

      .st134 {
        fill: #338272;
      }

      .st135 {
        fill: #347780;
      }

      .st136 {
        fill: #32c982;
      }
    </style>
    <linearGradient id="Degradado_sin_nombre_3" data-name="Degradado sin nombre 3" x1="-94.34" y1="1637.88" x2="155.87" y2="1774.33" gradientTransform="translate(448 -1052)" gradientUnits="userSpaceOnUse">
      <stop offset="0" stop-color="#2bc895"/>
      <stop offset=".4" stop-color="#337883"/>
      <stop offset=".52" stop-color="#347f7c"/>
      <stop offset=".68" stop-color="#3cb563"/>
      <stop offset="1" stop-color="#2a5e5c"/>
    </linearGradient>
    <linearGradient id="Degradado_sin_nombre_4" data-name="Degradado sin nombre 4" x1="39.95" y1="1297.54" x2="103.11" y2="1541.5" gradientTransform="translate(448 -1052)" gradientUnits="userSpaceOnUse">
      <stop offset="0" stop-color="#1da596"/>
      <stop offset=".28" stop-color="#259b8d"/>
      <stop offset=".86" stop-color="#3cbb5c"/>
      <stop offset="1" stop-color="#34a15f"/>
    </linearGradient>
  </defs>
  <path class="st126" d="M2,1024H0V0h1024v1024h-2c-334.94-.88-684.99-.88-1020,0Z"/>
  <path class="st41" d="M1022,1024H2c-.1-.54.18-.74,1.37-1h1017.26c1.18.26,1.48.45,1.37,1Z"/>
  <path class="st95" d="M416,610.12c.54,1.97-1.09,3.7-2.18,2.05,1.9,10.28,4.49,20.45,7.77,30.49l-.61,4.26,3.1,2.49c32.95,80.79,143.42,81.59,176.99.9l3.09-2.46c-.65-.2-.03-.71.69-.92,3.78-1.1,12.91-2.78,13.9,1.13.81-.7,1.73-1.49,2.84-1.61,3.39-.37,15.99-.06,19.47.42l2.63,2.03c1.8-.78,2.04,0,.39,1.2-8.34,26.38-24.37,50.2-45.24,68.21-58.2,50.21-145.78,40.49-191.78-20.89-39.26-52.39-41.17-119.4-18.03-179.6,8.39,13.25,16.37,24.71,26.97,35.42-4.03,18.69-6.28,37.41-3.66,56.32.56.84,3.17.43,3.65.57Z"/>
  <path class="st53" d="M613.03,380.05l-2.35-3.35c-1.19-9.82-3.94-19.37-7.51-28.57l.53-4.08-3.3-2.64c-34.35-78.68-139.06-77.82-175.06-1.04l-3.35,2.52c-12.89-.53-25.84-.36-38.85.5l-.18-1.28c19.35-60.52,74.14-104.99,140.08-99.87,50.61,3.93,92.52,38.67,113.15,83.86,21.48,47.04,20.42,100.26.86,148.72-7.89-13.62-16.77-24.8-26.61-35.74,1.03-7.5,3.36-14.53,3.18-22.01,3.31-12.85.4-25.02-.6-37.02Z"/>
  <polygon class="st112" points="580 960.97 467.01 961.02 467.01 926.98 579.99 926.95 580 960.97"/>
  <path class="st7" d="M603.7,344.05c4.79,11.77,8.28,23.33,9.33,36-22.42,2.2-44.25,7.81-64.83,16.98-2.79,2.37-9.58-2.67-10.18-6.12-2.65.99-8.24-2.95-8.06-5.96l-2.45.64c-5.02-4.15-10.16-8.07-15.43-11.77l-.03-1.15c.53-.88,1.1-1.74,1.77-2.5s1.32-1.44,2.12-1.89c21.81-12.38,57.05-23.92,82.06-25.65.92-.06,1.87.12,2.82.36s1.94.63,2.88,1.06Z"/>
  <path class="st44" d="M444.02,490.89c2.08,1.47.47,4.6-1.02,5.72,2.99,3.62,8.21,10.03,6.88,14.7,1.58,2.12.64,3.46-2.82,4.02-6.3,6.71-12.33,13.45-18.1,20.21-1.61.81-3.29,1.29-5.02,1.44-10.19-11.91-17.81-26-25.04-39.97-.24-3.66.69-6.07,2.2-9.39,3.78-8.34,13.12-22.58,18.52-30.46l2.32.03c.28-.88.64-.88,1.07-.03l2.33,1.46c1.48,5.81,10.31,28.42,14.21,31,2.83-1.3,4.32-.88,4.48,1.27Z"/>
  <path class="st12" d="M412.75,381.19l1.56,3.15c-.63,7.21-.73,14.44-.31,21.68l-1.94,2.98-1.38.2c.32,5.22-4.26,7.42-8.39,9.22-3.62,1.57-17.19,5.89-20.25,6.2-4.65.46-6.21-2.82-5.56-7.1l-.7.49c-1.21-12.24-1.87-24.5-.69-36.86.13-.53.29-1.04.58-1.46.55-.8,16.43-.86,19.16-.85,2.57,0,17.06.49,17.7,1.11.25.24.28.71.24,1.24Z"/>
  <path class="st121" d="M746,379.11l-.73.52c4.62,3.51,8.8,7.44,12.56,11.8l-.29,1.28c-8.54,7.18-15.51,15.4-20.93,24.64l-2.51.79c-7.31-8.23-17.05-13.9-26.1-20.18,4.24-7.31,9.74-14.08,16.51-20.33,4.95-3.92,4.91-6.98-.11-9.2-2.94-1.12-4.74-2.69-5.39-4.71-2.12,2.17-3.74.97-2.92-1.78-1.41-.73-1.75-1.38-1-1.97,11.1,5.08,21.61,11.29,30.9,19.13Z"/>
  <path class="st57" d="M743.96,569.1c3.59.05,3,2.36.88,4.57-.4,2.56,1.68,4.82,6.25,6.78,2.15,2.09,3.98,4.41,5.49,6.96,6.6-.49,8.97,1.25,7.11,5.22l2.03,2.67c-7.22,8.02-14.67,14.91-23.7,20.68-1.86.4-2.76-.05-2.87-1.86-4.55,2.2-6.8.27-7.68-4.3-3.94-4.32-8.15-8.29-12.62-11.91l.42-2.54c2.53-2.01,2.94-4.91,1.25-8.7,2-1.17,3.57-2.48,4.71-3.94l15.55-15.61c1.71-.25,2.55.51,3.19,1.97Z"/>
  <path class="st79" d="M267.87,453.96c-2.48,8.66-6.33,17.89-7.2,27l-2.18-.82c-.92-3.76-2.26-7.39-4.01-10.91-2.78,2.06-4.99,2.58-6.63,1.55-2.25-5.25-5.41-9.38-9.5-12.39,1.8,7.23-6.42,6.75-6.96.16-1.02.76-1.87.96-2.56.6-.98,7.68-2.44,15.26-4.37,22.75l-2.61,1.1c1.1-16.9,5.72-34.25,14-49.01l4.1-7.79,2.63.27,8.03,11.35,9.85-.81c2.43,2.35,5.19,3.17,8.27,2.48l1.26.96c.01,4.37-.69,8.88-2.12,13.51Z"/>
  <path class="st45" d="M799.67,456.16c1.12,6.05-.12,10.34-3.73,12.87-5.46,9.82-11.1,19.48-16.9,28.99.11,4.08-1.97,7.65-6.21,10.71,4.56,2.55,6.82,6.34,8.99,10.87,6.47.72,6.75,4.66.83,11.83.32,2.41.05,4.25-.81,5.54-.42,1.32-1.32,2.35-2.71,3.09-2.09,5.19-9,10.96-10.16,3.15-.65-1.86-.21-4.08,1.32-6.66l-4.75-3.89c-3.19,2.2-5.52,2.91-4.6-1.69,4.28-12.19,5.41-25.25,6.06-38.07l1.13-4.31c5.65-8.2,11.18-16.57,16.59-25.14,3.89-3.48,4.82-4.53,4.76-9.45,4.09-1.7,4.6-5.21,1.55-10.52.4-3.97,1.34-5.09,2.82-3.36,2.18,3.69,4.46,11.61,5.82,16.05Z"/>
  <path class="st73" d="M802.05,463.93c1.54,7.03-.34,12.31-5.63,15.84-1.93,5.97-4.12,11.79-6.58,17.48l-5.45,7.03c5.4.5,10.12,1.96,14.15,4.4-1.09,4.34-.36,7.87,2.19,10.59.19,2.4-.06,4.85-.76,7.32,1.79-.49,2.39.63,1.81,3.39l-2.82,9.14-1.46,1.15c-1.22,6.69-3.18,8.67-5.88,5.95-4.86,1.63-8.12-1.46-9.76-9.29-4.62-7.47,3.49-9.44,3.54-15.36-3.26,1.69-5.68-.57-6.57-3.18-1.44-4.22-4.03-5.82-7.28-8.22-2.25-1.67,1.6-5.53,3.52-6.24,2.86-1.07,1.19-5.64,2.46-7.22,3.29-4.1,5.46-7.99,7.54-12.72,2.46-5.59,5.73-10.66,9.02-15.8,1.3-2.04,4.84-2.99,4.5-6.13-.24-2.17-1.01-4.82,1.1-5.92l2.38,7.77Z"/>
  <path class="st122" d="M725.22,582.74c1.69,1.74-2.31,2.13-3.08,3.68-.2.39,1.82,1.28,1.49,1.67-1.32,1.54.2,4-.16,5.33s-4.59,3.66-2.11,4.84c3.91,1.85,6.42,4.11,8.85,7.67,1.16,1.7,3.77,2.28,3.66,5.1-.08,2.03,1.75,2.37,3.6,1.75.76-.26.67-1.43.31-2.99-.22-.93,1.22-.99,1.8-.93,2.25.23.51,4.81,2.44,7.14-8.51,5.43-16.45,13.61-26.93,15.94-1.17-1.12-2.83-1.54-4.95-1.27l-1.75-1.92c-4.49.61-6.07-2.73-4.68-6.66-3.17-2.1-2.93-4.81.73-8.14-2.89-2.55-4.04-5.46-3.43-8.74-4.19-1.49-3.52-3.77,2-6.83l-.08-1.35c8.02-3.72,14.59-10.07,22.3-14.28Z"/>
  <path class="st99" d="M412.05,409c3.25.61,3.94,10.76.99,12.15-.91,1.42-1.48,2.79-1.72,4.09,1.88,1.38,4.3,10.84,3.61,12.79-1.42,4-21.88,12.35-26.05,12.21-6.1-.2-7.02-2.1-8.43-7.55-.18-3.46-.71-5.41-1.57-5.83-1.04-6.29-2.49-12.39-3.13-18.86.35-.99-.23-2.21.93-3.08.67,2.33.19,3.78.24,6.57l4.82,1.23c2.94-1.58,6.63-1.01,9.18-2.61,5.76-3.62,12.36-1.87,17.16-7.99,3.52-4.49-1.6-18.93,2.53-14.02,1.29,1.53-.95,9.37,1.41,10.91Z"/>
  <path class="st34" d="M672,346c.87.28.86.62,0,1-.51,1.85-2.19,2.2-5.03,1.07,2.32,8.05,3.66,16.17,4.03,24.38l2.46,3.91c-4.66,5.86,3.84,7.31,1.97.2.71-3.2,2.78-5.68,6.19-7.44,2.43-2.3,3.97-5.29,4.64-8.96,3.18-.59,6.24-1.39,9.18-2.4-6.74-1.48-8.81-3.45-6.23-5.89.49-.47.95-.82,1.34-.75,8.34,1.6,18.16,6.82,25.56,10.82,1.03.36,1.83,1.53,2.92,1.78,3.06,1.61,1.86,4.08,0,6.47-4.59,4.46-9.51,8.52-14.76,12.2.68,3.16-1.07,5.03-4.05,3.98.31,1.13,1.34,2.4,3.07,3.82-.09,3.05-2.17,3.6-6.24,1.65-.21.04-.52-.15-.71-.06l-4.4-1.71-23.28-7.56c-.81-13.43-3.05-25.67-6.01-38.45,3.84-.44,6.69,1.62,9.38,1.92Z"/>
  <path class="st127" d="M258.92,488c.31-.87.68-.86,1.09,0-.04,7.29-.87,14.91.22,22.17.25,1.92-.6,2.83-2.34,2.09l-6.29-6.15c-7.06,4.16-14.4,7.38-22.69,7.98-2.6,3.1-2.77,6.97-.51,11.62.18,2.9.04,5.54-3.41,4.28-2.76-12.49-4.41-25.23-3.82-38l2.32-1.15c1.88-3.41,5.07-5.52,9.58-6.33,3.19-4.86,8.32-3.24,11.75.57,1.02-3.16,3.48-4.71,6.74-4.74,2.3-.02,8.14.93,6.3,3.43-.35,3.24,0,4.65,1.05,4.23Z"/>
  <path class="st48" d="M786.68,567.08c-5.39,10.66-13.09,19.49-20.96,28.23-1.98.78-3.19-1.55-5.15-2.28-1.47-.55-4.13,1.46-5.23-.51-1.71-3.05,8.09.84,7.3-3.34-2.11.76-3.88.54-5.34.43-2.98-.22-3.02-2.43-4.59-4.41-6.21-7.84-9.36-5.55-9.82-8.61-1.02-6.78,3.36-3.8,1.07-7.48-.76-.74-1.21-1.69-.63-2.41,3.06-3.8,9.59-10.54,13.38-13.32l3.29-.57,1.6,1.43c-.99,4.87.2,6.52,3.59,4.96,4.89,4.09,9.51,7.62,15.16,10.03,3.34-4.77,5.44-5.49,6.32-2.14Z"/>
  <path class="st114" d="M260.66,480.96c-.23.24-.34.81-.62.99-.31,2.16-.68,4.17-1.13,6.05-1.34,3.77,1.09,7.43-1.16,11.81-1.47-6.28-.69-11.68-1.08-17.82-.76.35-1.62,1.86-2.43,1.77-1.84-1.79-3.27-1.62-4.94-1-3.95,1.47-1.74,6.55-4.89,5.33-2.82-1.1,1.75-2.06-6.2-4.64-2.21-.72-2.59,2.27-4.52,2.96-6.6,2.38-9.15,2.19-10.1,12.66-1.37-2.78-.06-5.67-2.42-7.06.02-.33,0-.67,0-1l.59-7c.18-.23-.05-.73.07-1,3.48-7.63,2.88-17.15,5.68-25.15,1.65-.38,3.51-1,4.64-2.6,3.48,1.84-.49,3.79,2.24,5.74,6.17,4.42-1.82-8.85,1.38-8.85.94,3.13,3.41,3.82,5.42,5.59,3.87,3.4,6.23,8.02,8.42,12.59,1.77-1.31,2.12-2.81,3.15-2.99,1.11-.19,3.49-.26,3.78,1.02,1.86,8.35,2.2,1.64,4.12,12.61Z"/>
  <path class="st18" d="M260.24,510.17c1.2,7.97,4.25,15.64,5.92,23.51-2.99.82-5.18-1.16-6.55-5.94-9.97-1.75-22.62,6.18-26.52,15.2,2.42,5.03,2.14,7.71-.82,8.05-3.17-6.62-5.67-13.75-7.27-21,2.28-1.64,1.64-4.04.55-6.81-1.62-4.08-.56-11.28,4.67-11.44,7.51-.24,13.57-3.67,20.31-7.32,3.85-2.09,7.72,8.87,9.71,5.75Z"/>
  <path class="st29" d="M702.92,597.02c.43.7.9-.22,2.04-.04-.26,3.37-2.73,4.03-5.15,5.54-.02,2.75,9.05-3.5,6.84,1-.88,1.79-4,2.16-4.02,4.06-.02,2.25,5.55,6.32,4.12,7.56l-3.63,3.15c-.79.68,2.11,2.03,2.43,2.85.4,1.01-.22,2.36-.43,3.8s1.3,2.02,2.32,1.98c1.52-.06,2.24-2.52,3.83-1.77.35.16.76.49.51,1.2-.13.38-1.28.46-1.68,1.27-.52,1.05,1.45,1.61,2.37,1.45,1.31-.24,3.37-3.45,5.26-1.47.35.37.47,1.13.88,1.89-2.2.15-3.51.83-3.53,2.45l-.97.81c-1.13-.07-2.91.11-3.29,1.28-6.1,3.5-13.09,5.35-19.83,7.21l-5.11,1.08c-5.88-6.18-6.61-13.45-.45-19.88-.44-3.36-.1-6.63,1.03-9.81-6.07,1.7-10.22-3.74-2.86-5.76l3.38-2.84c5.31-1.93,10.77-4.61,15.92-7Z"/>
  <path class="st125" d="M686.99,604.02c-.79,2.87-2.16,5.28-6.22,5.23,4.69,6.12,9.21-5.89,15.93-1.24l-6.77,1.72c-5.78,11.55.34,10.77-4.34,16.03-5.74,6.46-.62,9.13.61,16.15,1.71-.78,3.24-1.06,4.8-.67l-6.07,1.67c-2.16-.85-3.23-.67-4.83,1.04-2.31,1.29-7.5,1.67-10.29,2.23-11.4-.29-10.78-12.51-3.31-17.49-3.75-1.34-5-4.38-3.76-9.12-3.07-3.78-3.71-6.83-1.93-9.16,8.77-.53,17.76-3.34,26.19-6.39Z"/>
  <path class="st8" d="M279.95,432.24l-12.08,21.72c-.93-2.08-.82-4.7.64-7.28.35-.62-1.22-1.78-1.25-2.44-.04-1.08,1.16-2.06,1.82-3.08l-7.92,1.35c2.22-6.63-1.98-1.58-11.52-3.06l-9.34-12.69c-.55,3.83-3.35,5.26-4.45,7.23,2.73-8.76,8.81-15.79,13.98-22.98l2.21-1.03,8.15,6.6c7.2,1.05,12.58,4.16,16.14,9.31,4.92-1.91,5.61,1.62,3.21,5.33l.41,1.03Z"/>
  <path class="st11" d="M781.85,536.96c5.37-.96,1.54,7.09,6.76,8.04,2.65.48,5-5.32,5.17-1.42.03.56-.8,1.69-.54,2.35,4.33,1.16.88-8.52,5.72-6.78-3.04,9.84-7.67,18.85-12.27,27.94-.48-.06-1.45-.59-1.91-.03l-5.53,6.64c-.68-3.37-1.54-4.22-3.95-4.95-4.26-1.28-7.14-4.98-10.63-7.74-1.88-.04-2.74,1.83-5.14,2.34.6-6.03-.8-7.58.48-10.53-2.12-1.8,4.62-8.62,6.16-9.53,1-.58,1.7-.8,2.81-.08,7.71,6.23,5.08-6.43,12.87-6.24Z"/>
  <path class="st63" d="M418.88,447.99c3.67.13,5,6.26,3.05,9.2l-18.78,30.88c-3.87,6.37-1.11,8.48-4.25,8.94-5.94-11.48-10.08-23.72-14.03-35.92-.77-6.31,4.08-2.14,5.57.88,7.89-2.93,15.42-6.37,22.58-10.31.78-3.29,2.98-6.98,5.87-3.67Z"/>
  <path class="st20" d="M322.21,358.85l2.28.32,4.61,12.1c9.55,7.62,19.53,10.46,29.92,8.52,1.65.52,2.69,1.21,1.98,2.99-11.35,2.16-22.39,6.07-33.18,10.26-1.92.71-2.52.69-2.96-1.19-11.79-1.89-18.61-10.43-23.11-20.63-.3-.67.65-1.56,1.46-2.09.46-1.92,2.08-3.2,4.87-3.85-2.27-3.54.9-3.95,4.12-4.31,2.1-1.87,10.96-6.2,10.01-2.12Z"/>
  <path class="st124" d="M470.82,597.19c3.99,1.91,1.79,7.94-.94,10.65-2.03,9.21-2.8,18.41-2.33,27.58l-2.67,2.6-.86,2.23c-2.81,1.5-12.58,5.33-14.01,1.89-3.15.8-4.63-5.06-5-7.98l2.48-23.69c-2.18-1.93-2.7-3.72-1.56-5.35l24.89-7.94Z"/>
  <path class="st47" d="M361.82,346.42c1.28,1.78,1.97,4.05,2.06,6.83l2.54,7.78-1.23,1.95,1.81.26c3.28,6.44,7.04,12.97,15.32,13.23,9.37-.79,19.52-.85,28.72,1.29.4.09.72.52,1.01,1.05.27-.91.58-.87.93.05l5.02,1.14c.25-.89.58-.87,1,0,.87.28.86.62,0,1-.79,2.94-4.94,3.11-6.25.19-1.39-.22-2.75-1.24-4.71-1.25l-21.96-.07c-4.12-.01-7.5.65-11.01,1.28-2.89.51-6.04-.15-8.95.67-6.24-1.22-18.01-7.38-23.09-11.56-4.09-3.36-6.08-10.26-6.9-15.12.88-1.75,2.76-2.73,5.62-2.94,3.06-1.68,5.87-2.51,8.44-2.5-1.72-1.37-1.47-1.59.37-2.16,3.25-1.01,8.28-2,11.26-1.12Z"/>
  <path class="st64" d="M801.77,529.99c-.35-.33-.55-1.85-1.15-1.85-.55,0-1.45,1.94-1.98,1.32-1.72-3.05.44-6.03.38-9.41-3.25-2.7-3.64-6.28-1.98-10.68-6.6-3.16-12.85-1.31-15.37-4.35,2.37-4.82,7.11-8.2,8.74-13.01.31-2.09-.23-3.89,1.72-5.99,1.83-1.97,1.05-6.49,3.59-8.4,8.84-6.64,3.16-9.71,6.33-13.7,6.54,21.35,6.31,44.72-.28,66.06Z"/>
  <path class="st84" d="M470.96,843.98c.61,12.83.7,25.69.29,38.57-2.59-.36-3.89-2.55-3.89-6.54-.98,2.6-2.33,3.95-4.07,4.07-.52-3.29-.24-6.63-.43-9.95-.82-.42-.76-.79.14-1.13-6.3-.76-13.99-1.04-20.16.31-.46,9.57-1.81,11.26-4.05,5.08-1.53,2.86-2.36,6.65-2.5,11.36l-2.35.25-.09-40.06c0-2.64,1.71-3.94,3.66-4.18,2.08-.25,5.07.63,5.14,3.38l.37,16.48c6.72.45,13.07.4,19.71.11,1.32-6.06-2.15-18.05,2.99-19.64,1.56-.48,4.86-.33,5.25,1.89Z"/>
  <path class="st3" d="M660.81,610.41c-.3.5-.14.77.12.96.35.25,1.36.5,1.64,1.03.19.36-.94.82-.99,1.21-.06.47.4,1.26.85,1.7,6.32,6.29-3.03,10.45,6.05,11.16.76,8.32-5.17,2.65-5.09,10.24.02,2.21-.44,4.11.74,5.6,1.37,1.72,3.17,2,5.71,1.87.29.8,0,1.46-.02,2-11.45,2.31-17.19,1.39-25.72,3.92l-.39-1.2c-1.56-1.05-1.22-2.57,1.01-4.56l-1.24-6.68,5.61-14.22c1.17-7.53-3.16-10.32-12.99-8.36-.79-1.25-2.49-1.88-5.09-1.87-1.81,3.15-6.62,2.58-7-1.2.08-1.12,2.01-.62,3.08-.23,6.38-3.61,17.27-3.58,24.08-.78l9.65-.58Z"/>
  <path class="st88" d="M445.92,605.13l3.91,5.12c-2.24,5.01-1.21,10.36-2.19,15.63-.89,4.8-1.49,8.55,1.06,13.22.46.84-.39,2.98,1.3,3.04l-.86,2.07c-2.7,1.24-13.67,4.89-14.14.98l-4,.86c-.11,2.95-3.33,2.88-4.14.1.18-2.75.05-5.51-.4-8.29,2.75-4.88,4.22-9.9,4.38-15.05-1.53-6.06-.91-10.95,1.87-14.65l13.21-3.03Z"/>
  <path class="st38" d="M266.16,533.68c2.75,1.71,2.4,7.03,4.02,9.38-.85,4.55-3.92.79-5.68-1.62-.45-.38-1.04-.39-1.58-.17-3.18,1.3-20.87,11.49-22.72,13.64-.76,2.94-2.15,4.25-4.17,3.95l-3.76-7.87c.94-1.26.22-4.21-.5-5.66-1.73-3.51.41-4.07,1.33-6.1,1.76-3.87,2.85-5.63,6.92-7.51,4.7-2.17,9.28-6.37,15.03-6.48,1.94-.04,4.2,1.37,5.21-.94,1.95,3.99,2.71,7.51,5.9,9.36Z"/>
  <path class="st93" d="M280.82,379.05c2.28-.04,2.65,1.37,1.1,4.24l1.1,2.33c-1.75,2.27-1.38,3.88,1.1,4.82.68,3.03,2.28,5.62,3.96,8.14,3.45,5.17,7.19,10.56,12.77,4.48,3.9-.79,4.25,1.27,1.07,6.17l-14,13.72c-1.93-.2-2.68-.98-2.43-2.8-5.63-3.13-10.95-6.97-15.95-11.53-.82-2.16-2.41-3.9-4.79-5.22-.28-2.67-.4-5.4-.36-8.19l5.62-7.07c2.52-4.09,6.91-6.57,10.81-9.08Z"/>
  <path class="st107" d="M303.2,369.13c-.28,1.24,2.01,2.95,2.29,4.12,1.58,6.52,5.73,9.98,11.14,13.26,3.01,1.83,5.64,4.42,9.65,2.61.34,2.19.74,3.11,1.53,3.92-5.04,1.96-10.7,6.68-15.7,9.01-1.44-.33-2.8-1.35-4.09-3.06-7.11-1.63-12.7-6.1-16.76-13.41-6.41-1.74-7.32-3.86-5.19-10.45,1.84-1.98,4.78-3.45,6.89-5.05,2.59-.74,5.07-2,7.45-3.8,3.16-.82,4.97.04,2.79,2.86Z"/>
  <path class="st110" d="M332.93,600.9l21.22,6.87c1.52.49,1.68,1.18,1.85,2.23v2l-2.17.11c-1.43-2.74-19.38-4.78-20.25-4.16-.52.37-6.95,8.94-7.63,10.22-1.26,2.38-2.85,12.99.39,14.61.51,3.01-.71,3.35-3.34,2.21-.11.77-1.14.82-3.08.15-5.42-2.38-10.95-3.69-15.72-7.4-.73-2.27.54-2.96,2.49-3.71-1.71-11.49,5.05-20.57,13.76-26.56,4.14,1.53,8.31,2.67,12.49,3.41Z"/>
  <path class="st30" d="M560.08,848.06c-7.43.27-14.8.59-22.11.98-.23.32-.59.56-.86.85-.83,3.5-1.36,9.35.18,12.11l17.67.1c.7,0,1.52.38,1.02.9l-1.79,2.05-13.95.24c.4,1.73-.03,2.96-1.29,3.69.89.28.89.64.04,1.09-1,.49-1.58,1.51-1.58,2.99l.03,15.3c0,2.63-2,4.27-3.95,4.39-2.61.16-4.83-1.7-4.83-4.75v-40.06c.01-3.79,2.44-6.81,6.4-6.81l22.81-.03c1.78,0,3.34,1.48,3.7,2.61.54,1.68.34,3.76-1.48,4.34Z"/>
  <path class="st25" d="M287.93,422.94c-2.68,2.63-5.51,6.58-7.98,9.3-.51-.12-1.17.15-1.85-.16.18-2.36,1.17-3.6,1.1-5.59-1.38,1.07-2.45,1.83-3.14,1.57-.77-.28-1.63-1.17-1.89-1.91-2.04-5.7-12.6-6.25-15.34-8.05-3.31-2.18-5.67-5.4-8.99-7.09,5.87-8.16,11.76-16.95,20.18-22.88-.51,2.65-3.42,4.53-3.74,7.74-.07.67,2.11,1.67,1.4,2.55-.87,1.09-1.83,1.81-1.61,2.89.17.81.88,2.33,2.06,2.44,2.64.25,2.21,3.42,3.6,4.32,11.27,7.32,10.39,11.01,15.72,9.42.17,2.31-.18,3.86.48,5.46Z"/>
  <path class="st134" d="M432.71,608.15c1.08,2.36-1.01,5.22-.6,7.79,1.14,7.04,1.44,13.32-2.74,19.54-3.04,4.53,2.61,8.34-2.51,10.66-.89,3.04-4.36,3.77-5.88.77-4.16-11.36-7.51-23.37-8.64-35.5,1.65-.21,2.77-1.14,3.66-1.3,5.46-.97,11.29-.72,16.71-1.96Z"/>
  <path class="st135" d="M413.23,423c-.27,1.41,0,2.41.8,3l2.41,2.64,3.72,15.96-1.28,3.39c-7.96,2.09,3.05,4-14.11,10.07-5.09,1.8-9.56,4.36-14.54,5.74-1.93-1.26-3.11-2.85-4.52-4.76-.88.64-.69,1.39-.84,2.04-2.61-8.07-4.59-15.86-5.97-24.23.23-1.1.64-.74,1.15-.39,1.68,1.16-1.88,3.71,3.7,11.22.78-.4,1.34-1.5,1.76-1.46s.74,1.91,1.41,2.56l19.4-6.38c2.44-.8,5.62-3.14,6.9-5.15,1.02-4.38-.54-9.54-4.02-12.81,1.07-1.19,2.47-2.19,3.84-3.29,2.67-.13,2.62.82.19,1.85Z"/>
  <path class="st58" d="M649.79,568.09l1.02,8.91c-.27,3.55-.62,7.09-1.05,10.6-4.67,4.85-9.68,9.1-15.04,12.75l-8.89,8.12c1.35.47,1.77,1.57,1.25,3.3l-3.08.23c-1.49.7-4.45.82-6.03-.1-.49,2.73-1.92,2.6-2.98.06-1.32.91-1.81.4-1.03-1.03-.75-.17-1.82-.43-1.92-1.04-.38-2.22.23-11.53,2.99-11.8.58-3.82,1.31-4.68,4.97-5.64,9.23-6.92,17.74-14.6,25.54-23.04-1.38-5.28,2.28-6.58,4.25-1.31Z"/>
  <path class="st70" d="M324.1,596.93c3.29-.06,5.96,3.05,8.83,3.97-4.86,3.68-6.92-1.48-11.41-2.08-1.37-.18-1.36,1.73-2.37,2.42-8.1,5.57-12.22,14.5-10.19,24.32-2.18.17-3.31,1.47-4.77,2.2-3.86-3-10.02-3.28-13.06-7.71-.82-1.78-.38-3.91,1.32-6.37,2.19-8.94,7.79-25.98,19.39-21.75,4.18,1.38,8.27,3.04,12.26,5Z"/>
  <path class="st22" d="M632.87,507.83c.31,3.34,1.15,6.81,2.52,10.39l-.95,1.69c-7.58,3.88-13.61,9.79-18.11,17.72-2.74,3.27-5.92,6.74-9.43,2.28-2.7.55-4.56-2.61-3.17-4.94-2.82.09-3.73-3.74-2.67-6.09-2.89.16-3.05-3.33-1.11-5.01,1.12-1.12,2.06-1.28,2.92-.01.76-1.73,2.73-3.05,5.93-3.96,4.17-6.23,10.58-13.53,17.06-17-1.53-2.88-2.68-7.77,1.79-6.1,1.8,3.71,3.5,7.32,5.2,11.06Z"/>
  <path class="st32" d="M791.82,436.02c.1,1.15,1.44,3.1,2.02,4.09-3.79.02,2.72,7.95.78,12.45-.55,1.36-2.94,1.29-3.4,2.22-.55,1.11.42,4.39-.47,5.23-4.11,3.87-7.76,8.34-10.53,13.33l-6.04,10.89-7.18,8.66c.29-5.69-1.89-12.11-2.24-17.88-.63-3.99.45-5.52,3.25-4.58,5.4-9.41,11.23-18.49,17.47-27.23,2.98-.66,3.89-2.74,2.74-6.23.95-2.56,1.99-3.34,3.59-.94Z"/>
  <path class="st91" d="M644.62,542c.32,4.92-2.5,8.66-8.47,11.23-5.9,7.17-12.82,12.17-20.75,15.02-1.13-.76-1.59-2.06-1.38-3.91l-1.2-.34c-3.2-1.37-6.01-10.91-2.78-13.04.13-3.6,3.99-4.3,6.97-2.35,5.21-4.3,9.83-9.05,13.87-14.24,3.13-.94,5.02-2.39,5.67-4.37-1.94-6.2-1.23-8.52,2.14-6.96,2.13,6.31,4.71,12.36,5.92,18.96Z"/>
  <path class="st133" d="M477.96,593.77c1.05-1.52,6.69.61,6.03,3.08,1.21.49,1.21.84-.08,1.17-1.36,9.49-2.13,19.23-2.3,29.22,1.79,2,1.18,3.94-1.8,5.81-1.61,3.81-11.58,7.8-14.93,4.97-1.41-1.03,1.27-2.43.84-4.13-2.03-2.01,1.38-21.37,2.01-24.16.38-1.69-.42-2.71,1.8-4.59,2.02-1.71,1.03-5.69,1.3-7.95,2.36-.75,4.56-2.99,7.14-3.42Z"/>
  <path class="st117" d="M638.71,523.04c-.53.35-1.06.54-1.17.98-.24.93-.05,2.05.43,3.07,1.47,3.15.2,6.81-3.26,7.55s-3.65,3.46-5.58,5.28c-4.8,4.54-9.03,8.98-14.29,13.1-1.49-1.15-.31-2.45.14-4.05-2.23.43-3.19,1.97-4.92,1.99-3.33-1.27-7.02-9.14-3.15-11.06.29-.35,1.37-.72,2.06-.66.46.04.63.81,1.11,1.29,7.05-3.81,10.96-16.99,20.07-20.4,1.72-.64,3.19-1.28,3.46-2.8.3-1.68-3.71-11.34-.74-9.5,2.28,5.02,4.09,10.04,5.84,15.22Z"/>
  <path class="st31" d="M627.67,496.77c-3.53,1.92,1.74,4.85-.2,8.06-3.82-.42-5.38,2.92-7.43,5.21-3.21,3.59-6.96,5.51-9,10.2-.65,1.49-3.2,2.09-2.8,5.08l-2.64-2.89c-.87,1.36-.89,3.87-2.69,4.24-1.19-.07-1.91-2.52-2.96-2.81-1.99.5-2.29-.42-.9-2.75-3.1.22-5.05-2.58-2.88-5.08-1.83-1.98-2.01-3.08-.54-3.3,1.96-2.97,4.33-5.87,7.12-8.71,5.67-4.41,11.21-8.93,16.62-13.55-.35-2.91,1.03-5.27,3.67-3.21l4.62,9.51Z"/>
  <path class="st77" d="M462.04,527.94c3.75-1.35,11.88,7.55,9.18,10.97-.45,1.66-1.76,2.26-3.94,1.79-3.41,5.31-14.54,20.82-19.93,22.74l-2.41-.8c-3.89-2.97-6.71-6.96-9.69-10.81-1.02-2.96,1.37-5.06,7.19-6.29.63-5.43,11.27-18,16.16-18.99,1.55-.31,2.49-.09,3.44,1.4Z"/>
  <path class="st72" d="M270.18,543.06c3.04,4.42,5.7,9.13,8.08,13.94.33.45.59.9.63,1.37.36,4.65-8.35-3.78-8.63-6.44-8.18,4.2-15.65,9.38-22.41,15.55-1.22,4.32-2.84,5.77-4.85,4.35-2.49-4.27-4.82-8.49-6.96-12.96,1.42-1.99,1.99-5.62,4.28-6.92l6.08-3.45,12.17-6.82c1.75-.98,3.15-2.51,4.95-2.53,4-.03,3.86,5.6,6.65,3.91Z"/>
  <path class="st128" d="M708,397.97c-3.34-2.32-8.41-2.63-10.98-6.12,1.63-2.12,4.73,1.75,4.47-2,0-.11-2.15.49-3.72-.14-.31-.12-.29-.43-.45-1.09-.11-.46,1-.46,1.38-1.32-.71-.79-1.06-1.39-1.45-1.94-3.71-5.31,10.75,3.56,3.69-3.05l8.94-6.46c1.95-1.41,3.12-3.54,5.24-4.91,2.77-1.79,4.33-4.27,3.89-7.22,4.79,1.11,8.46,4.44,12.5,7.9-4.74,8.12-15.1,16.33-20.4,24.37-.8,1.21-1.79,2.17-3.1,1.97Z"/>
  <path class="st90" d="M336.13,355.14c2.56,1.42,3.11,3.94,3.86,6.5,2.87,9.76,9.32,8.62,16.68,14.52.82.66,8.62,5.29,9.45,5.66-1.65.47-3.43.64-5.12.96-2.39-2.54-6.09.48-9.2.16-8.94-.89-16.98-5.5-24.18-10.43l-5.41-13.67c-2.45-2.92,3.17-4.69,5.79-3.85,1.63-2.41,8.32-3.97,8.13.14Z"/>
  <path class="st1" d="M649.79,568.09c-1.33.14-1.51-1.39-2.48-2.2-.81,1.8.21,2.61.4,3.69.24,1.34-1.9,1.83-2.34,2.89-1.36,3.23-3.63,4.12-5.92,6.11l-9.56,8.29c-4.13,3.58-7.36,7.93-13.25,8.65-.89.11-.9,2.05-1.61,2.56-2.62-4.82-2.68-13.24-.26-18.16-.48-5.17,1.56-6.53,4.89-2.09,6.16-2.91,11.74-7.34,16.74-13.31,1.66-2.9,3.8-5.12,6.43-6.68-.43-5.74.86-8,3.87-6.79,1.5,5.63,2.42,11.24,3.09,17.04Z"/>
  <path class="st33" d="M294.01,575.94c6.19,4.31,12.38,9.06,17.88,14.23-1.01,1.41-2.6,1.64-4.76.7l-9.22-4.11c-7.55,6.28-12.09,13.67-13.62,22.15,2.56,4.45,2.55,6.53-.05,6.23-5.26-1.87-8.93-6.43-12.86-10.14-1.72-1.74-1.85-2.15-.17-3.74-2.62-2.18-1.41-6.09.22-8.65,1.26-1.99,16.49-18.04,17.76-18.04,1.82,1.04,3.43,1.49,4.83,1.37Z"/>
  <path class="st132" d="M646.7,551.05c-2.68,1.3-1.35,5.53-2.09,8.24-1.41.73-3.56,1.44-4.66,3.69-1.79,3.66-5.69,5.69-8.31,8.68-3.4,3.88-7.07,7.9-12.51,8.22-1.29-.09-1.89-2.96-3.26-2.83-1.21.12-.87,2.16-1.11,2.87-.78,0-1.93-.07-2.09-.61-.42-1.43-1.88-13.06-1.67-13.71.25-.77,1.08-1.22,1.82-1.6.89.1.16-1.94.9-1.94,2.34.24.98,2.83,1.61,5.14.85-2.98,3.93-1.9,5.98-3.21,6.6-4.22,11.62-12.85,20.38-16.55l2.92-5.44c.53,2.88,1.31,6.19,2.08,9.05Z"/>
  <path class="st43" d="M312.12,402.05c-2.88,1.34-7.93,4.96-10.19,7.18-1.19-.05-.69-1.4-.41-2.05.23-.53.86-.9,1.46-2.73-.97-.9-1.32.78-2.05,1.88-1.9-.32-3.4.9-4.43,2.26-4.28.38-14.74-13.82-13.99-17.75l-2.97-.21c-.64-.05-1.47-1.3-1.09-2.17.31-.7,1.38-1.04,2.21-1.68,1.29-.98-.09-2.63-1.31-2.51-.49.05-1,.76-1.92-.22.71-1.63,2.22-2,3.13-2.61.58-.38.09-1.48.25-2.38,1.03-1.51,4.11-2.69,5.26-3.92.8,1.64,2.47,2.31,4.02,3.45-1.62.86-2.83.24-3.66,1.1,1.11,1.06.73,1.89.94,2.49.39,1.09,2.85.16,3.71.74,3.86,2.56,5.53,7.07,8.64,10.4,4.17,4.48,10.91,1.04,12.39,8.75Z"/>
  <path class="st16" d="M278.25,557c.71,1.43,2.52,3.73,3.62,4.93,2.51,4.93-3.23,3.25-5.68.61-6.27,4.58-12.48,9.25-18.62,14.03-.13,4.17-.57,7.73-5.58,7.34-3.38-3.72-6.4-7.6-9-12.07,1.62-.49,1.74-2.68,2.5-4.22,2.92-5.94,9.13-7.81,14.09-11.25,3.78-2.62,6.59-6.28,12.03-6.62.02.87,6.41,11.57,6.63,7.26Z"/>
  <path class="st26" d="M651.16,610.99c-7.88.47-16.07.2-24.08.78-1.28-1.59-3.48-.55-6.04-1.34l7.6-7.59,4.87-4.08c2.42-2.03,4.73-2.05,6.82-4.69,7.14-9,9.97-6.79,9.07-12.27-.28-1.68.05-4.01,1.43-4.81,1.29,11.25,1.65,22.71.35,33.99Z"/>
  <path class="st5" d="M791.82,436.02c-3.4,0-.36,2.81-1.62,6.67-.33,1.02-2.95.93-3.36,1.95-1.21,2.98-3.87,4.44-5.25,6.89l-4.98,8.92c-2.56,4.57-5.98,8.4-8.04,13.48-.66-.35-1.25-1.07-1.57-1.48-.64-.82-1.81-.28-1.9.34l-.34,2.21c-.28-4.56-3.09-9.34-3.85-13.92-.32-2.82-.29-3.74,2.65-2.83l11.09-17.85c3.57-2.9,6.78-6.05,9.63-9.47-3.22-5.38-3.25-8.32-.08-8.79,1.85,3.53,7.28,9.9,7.62,13.88Z"/>
  <path class="st37" d="M311.89,590.17c4.29,1.12,8.66,4.43,12.22,6.76-1.95.04-3.17-.25-5.14-1.26-3.19-1.64-7.3-1.91-10.88-2.73-3.16-.72-3.58,1.72-5.02,3.11-9.09,8.81-5.72,16.47-11.92,23.99-1.32-1.92-6.7-1.55-6.91-4.9.2-.5.79-1.36.51-1.65l-1.63-1.71c-2.8-2.93,2.37-14.1,2.6-14.36l11.85-13.29c5.51,3.41,9.6,4.79,14.33,6.02Z"/>
  <path class="st55" d="M281.87,561.93l8.29,9.03c1.02,1.11,1.7,2.18,1.58,3.42-2.54,1.87-5.48.37-8.84-4.5-3.77,4.48-7.97,8.56-12.6,12.26-2.07,4.17-4.65,7.15-7.76,8.94.81,1.95.64,3.51-.5,4.68-4.8-2.38-6.7-8.17-10.04-11.85,0-1.82,2.53-2.05,3.38-3.38.37-1.08-.48-3.06.05-4.27.83-1.92,2.81-2.11,4.34-3.4,2.97-2.5,13.77-12.1,16.25-12.27,1.53-.11,2.88,1.21,4.42,3.07.68-.36,1.07-1.12,1.45-1.72Z"/>
  <path class="st59" d="M760.83,392.24c1.38,2.57,3.06,5.05,5.02,7.43-1.22,4.45-4.4,7.78-9.56,9.97-5.5,5.79-8.25,8.69-8.25,8.69-1.77,3.92-4.1,6.47-6.98,7.66l-6.97-7.84c6.01-14.51,9.58-11.97,17.87-23.34.85-1.17,4.2-1.79,3.95-3.77.7-.58-16.41-14.83-9.91-11.92,5.1,4.3,10.18,8.22,14.83,13.12Z"/>
  <path class="st9" d="M291.74,574.38c-.1,1.52,1.58,1.09,2.26,1.56-.07.5.37,1.15-.43,2.08-3.88-6.05-6.75,2.61-14.93,9.67-2.7,2.34-5.21,4.06-6.26,7.91-.29,1.08-1.69,2.38-.75,3.23.48.43,2.43,1.1,2.23,1.81-.53,1.91-2.6,2.73-2.5,4.36-3.06-2.89-7.57-5.06-9.33-9.25-.55-1.3-1.45-3.13-1.85-4.71-.54-2.15,3.51-1.81,4.01-2.82,6.57-13.37,9.71-8.73,18.52-21.53,3.91,2.73,4.96,7.52,9.02,7.68Z"/>
  <path class="st101" d="M623.05,487.26c-4.38,2.23,1.56,3.2-5.26,6.66-3.11,1.58-4.61,5.36-7.65,7.19-11.91,7.19-7.3,9.88-14.51,11.61-3.83.19-7.72-6.37-5.51-9.56l.57-2.52c5.83-3.23,10.69-7.88,14.59-13.94l8.38-6.79c-1.21-2.41-3.26-7.5-.2-8.72,3.79,4.98,6.86,10.45,9.59,16.07Z"/>
  <path class="st61" d="M613.46,471.19c.62,2.61.63,5.6,2.09,8.74-.67,2.71-5.18,4.83-7.54,6.95-7.93,7.15-4.88,9.97-17.88,16.28-2.91.16-6.14-4.66-4.92-7.32-3.17.57-4.14-3.78-2.23-5.79-.36-2.16,1.86-2.66,6.65-1.5l2.72-5.24c5.64-3.65,10.82-7.84,15.54-12.57-2.97-4.33-2.92-6.91.13-7.73,2.51,1.68,3.7,5.89,5.44,8.18Z"/>
  <path class="st109" d="M769.88,401.77c3.39,3.57,5.82,7.26,8.32,11.35.56,1.75.83,2.92-1.25,2.81-.78,3.44-4.82,6.61-8.28,7.74-2.58,4.1-5.8,7.8-9.66,11.08-1.93,5.19-4.22,7.3-6.88,6.31-1.29-2.8-5.14-5.93-6.06-9.17l-.95-1.98c2.49-5.36,5.97-9.71,10.42-13.03-.12-2.13,1.75-3.6,5.58-4.42l7.15-4.48c-2.03-6.25-1.49-8.32,1.62-6.2Z"/>
  <path class="st102" d="M784.2,422.14c-2.35,3.11,1.36,3.81,2.27,9.38.16,1-2.36,1.3-2.56,2.12-.87,3.46-3.33,4.14-5.54,5.74-4.68,3.4-12.73,22.36-14.92,21.22l-1.85-.96c-.29-.15-.68.95-.69,1.45-.37-2.23-2.25-6.15-2.9-8.29l-.35-3.14c6.08-10.01,13-19.44,21.33-27.8-1.46-2.02-2.14-4-2.06-5.93.19-1.02.69-1.94,1.25-2.81,1.78,2.91,4.38,5.91,6.01,9.02Z"/>
  <path class="st96" d="M758.01,452.79c-2.23-3.48-4.16-7.99-5.89-11.74,2.97-1.34,3.27-5.25,5.34-7.58,3.4-3.83,7.46-6.42,9.87-11.21,7.94-3.47,3.53-4.03,9.61-6.34,2.31,1.58,4.18,4.33,4.29,7.34.89-3.43-14.94,16.77-12.32,12.74l-10.89,16.78Z"/>
  <path class="st32" d="M768.97,543.19l-8.97,9.6c-3.66,3.92-7.39,7.77-11.99,11.26-1.84,1.4-3.5,3.12-4.05,5.04-.69.3-1.54.52-1.99.17-.79-.61-1.05-1.46-1.2-2.14,9.63-9.67,15.57-23.03,20.17-36.17,0,.63.6,2.04,1.57,1.39,1.33-.9,1.44-2.72,3.13-4.41.59,4.03,3.79,5.81,7.62,8.03-1.45,2.83-2.6,5.43-4.29,7.24Z"/>
  <path class="st71" d="M513.87,573.21c.88.23.82.49-.09.77.78,1.28,2.23,2.72,4.35,4.33-7.63,7.92-15.48,15.69-23.54,23.32-3.87-.87-7.41-2.46-10.6-4.77-2-.49-3.74-3.22-6.03-3.08-1.54-2.16-3.97-4.44-6.13-6.13-.57-.44-.46-.72.27-.84,2.98-1.42,4.26-1.1,3.83.96,1.34.42,2.69,1.32,4.05,2.7l6.03,1.29,14.33-13.86c2.63-2.53,4.52-2.78,5.65-.76,2.36-1.35,2.08-3-.82-4.95l-.1-1.25c-2.81,1.95-7.81-3.08-5.11-5.89.48-.61,1.23-1.49,1.76-1.29,1.47.58,11.62,6.44,11.97,7.04.43.75.36,1.62.17,2.42Z"/>
  <path class="st74" d="M456.91,521.27c2.98-.96,8.2,4.41,5.13,6.67l-3.41.62c-2.25.41-16.81,14.82-13.82,18.39-3.27,1.47-7.75,1.61-9.56,4.87-1.11-1.44-3.04-3.97-4.39-5.06l-.93-2.75c6.43-9.18,13.45-17.93,21.06-26.23,2.17.45,4.14,1.61,5.91,3.48Z"/>
  <path class="st111" d="M605.18,458.01c.38.56.61,1.22.81,1.87,1.02,3.92.88,7.94-5.3,10.24-4.65,5.55-10.07,9.98-16.24,13.28-2.58.63-5.32-.77-8.22-4.21-3.01,1.36-9.97-7.26-6.36-9.27-.21-2.57,1.43-2.69,4.9-.35,5.2-.19,10.04-2.64,14.54-7.34,4.62-1.99,8.18-4.72,10.68-8.19.68-1.52,1.67-.74,2.97,2.33l2.21,1.63Z"/>
  <path class="st27" d="M456.91,521.27c-1.76.46-3.26-.94-5.36-1.94-6.42,11.02-16.1,16.67-20.68,27.44-3.22-2.6-4.41-6.84-6.93-9.79.18-1.93,1.72-2.45,3.47-2.94,2.61-.73,2.92-4.34,4.77-5.93,5.07-4.37,9.19-9.16,13.56-14.25,1.03-1.2,4.33-.52,4.14-2.55,3.22-.75,9.86,7.31,7.03,9.96Z"/>
  <path class="st129" d="M548.2,397.03c.41.67.98,1.47,1.66,1.96.98,1.04.97,1.62-.03,1.75-.43,1.07-1.33,1.56-2.71,1.46-2.01,7.97-9.96,27.82-19.96,23.98-2.65,1.81-7.72-1.11-5.94-4.29-2.36-3.09-1.05-4.3,2.9-3.97,5.86-7.74,9.87-16.13,12.04-25.17l1.85-1.83,10.18,6.12Z"/>
  <path class="st86" d="M480.64,547.93c1.42-3.82,6.34,1.18,4.31,3.99,1.26,3.51-2.7,3-5.08,1.26-6.68,6.88-12.15,14.86-16.4,23.95-1.01,1.37-2.51,1.26-4.48-.34-2.93-2.86-6.72-5.09-8.94-8.72,1.16-1.75,2.03-1.6,3.6-.64-.68-2.17-.41-2.85.71-4.73,1.88-3.18,15.81-18.82,18.36-19.77,2.69,1.45,5.33,3.12,7.92,5.01Z"/>
  <path class="st85" d="M769.88,401.77c-3.52-.44,1.12,3.22.44,6.36-.42,1.9-2.5,2.24-3.96,3.32-10.33,7.66-9.1.94-9.14,6.24-8.16,6.98-6.42,7.66-11.16,14.2-1.21-1.53-3.61-4.34-4.99-5.9,3.2-6.25,7.56-12.74,13.45-17.5,3.19-2.58,9.52-4.55,9.37-9.37-.07-2.3-4.54-4.57-3.05-6.88l9.04,9.53Z"/>
  <path class="st39" d="M519.2,868v9c-.58.83-.53,1.67-.56,2.02-1.55.43-2.35-.23-2.95-1.59-2.27,1.81-3.77,1.7-4.51-.33l-1.97-1.99c2.09-9.91-6.78-15.36-15.13-10.46l-2.07-.93c-1.18,2.06-2.45,1.78-3.81-.85-3.01,3.51-4.76,3.91-5.26,1.19,3.26-8.41,11.66-12.55,20.36-11.29,7.59,1.1,14.5,7.22,15.9,15.21Z"/>
  <path class="st87" d="M605.99,459.88c1.47.27,1.43,2.34,2.04,3.13-2.4,3.35,2.11,4.9,2.1,8.23,0,1.07-2.12,1.32-2.56,2.19-1.61,3.21-10.16,8.64-13.39,10.91-1.96,1.37-1.39,5.56-4.51,6.34-2.42.6-4.83-1.73-6.69-.62-3.76.81-8.42-7.75-6.75-10.86,1.77-2.01,3.31,2.05,4.73,2.51,4.74,1.55,14.42-9.01,18.05-12.75,1.94-1.99,6.39-2.34,6.06-5.88-.06-.66-.41-1.89-.31-2.36.08-.39,1.02-.26,1.22-.83Z"/>
  <path class="st76" d="M471.22,538.91c3.11-2.97,11.29,5.78,9.43,9.02-2.86.72-4.88-2.2-7.5-3.35-6.92,6.69-11.81,13.6-18.25,20.43.74,2.08,2.58,2.43,2.71,3.68-4.02,1.98-5,.12-7.55-.61-2.76-.79-3.22-3.99-5.11-5.43,5.87-3.51,17.84-16.84,20.98-23.88,2-.12,3.84-.07,5.29.16Z"/>
  <path class="st52" d="M484.96,551.92c2.93-2.1,9.63,3.82,8.08,7.04-1.45,1.39-4.02,1.45-7.71.18-4.97,6.29-10.05,12.66-15.22,19.1.36,2.97.89,7.68-3.12,5.62-2.89-2.25-5.42-4.55-8-7.07,2.14.3,3.55-1.14,4.58-3.33,4.07-8.64,8.9-16.7,15.96-23.14,1.78,1.6,3.76,3.07,5.43,1.6Z"/>
  <path class="st118" d="M579.05,860.7c-1.01,9.48-.73,19.76-.29,29.39-1.21,2.12-3.24,2.83-4.86,2.39-2.02-.55-3.47-2.27-3.46-4.63l.1-28.89c0-2.74,1.2-4.75,3.84-5.12,1.33-.19,3.56.37,4.7,2.31.74,1.26-.02,2.76-.04,4.55Z"/>
  <path class="st103" d="M493.04,558.97c1.77-3,5.64.17,3.99,3.06-.33,3.04-4.17,2.74-6.75,2-.77.08-8.79,9.61-10.08,11.57-1.44,2.19-3.68,6.78-3.69,9.14-.79,1.39-2.26,2.08-4.41,2.07.03.28-.24.56-.27.84l-4.84-3.78c2.49-.9,1-4.33.78-6.11,2.39-2.45,5.56-5.18,7.4-8.74s4.67-6.54,6.94-9.87c2.53-3.72,5.33-1.28,10.92-.18Z"/>
  <path class="st51" d="M492,863.73l.54,2.41c-2.49,5.29-1.78,11.7,3.52,14.84l-.04,2.29c-.61,1.4-1.86,2.27-3.76,2.61,1.56,1.8,2.09,3.04-.47,4.03-9.84-4.72-14.58-16.4-8.86-25.86.12,2.2,4.91-4.89,7.06-4.5.43,2.37.21,4.2,2.01,4.17Z"/>
  <path class="st94" d="M422,342.89c.84.36.84.73,0,1.11-.34.71-1.34.71-3,0-.35,3.03-6.4,2.89-7,0-6.4-.79-13.56-.84-20,0-.9,1.89-2.01,1.85-2.81-.08l-4.44,2.26c-6.91,1.18-16.35,1.9-22.93.23-3.96.61-7.95.9-11.95,2.09l9.86,1.43c-3.4,2.82-7.44-.18-10.71,1.33-4.21,1.94-8.33,4.01-12.9,3.88-2.44-1.36-5.97-1.81-8.13-.14-1.19.08-1.71-.08-1.04-1.15,17.8-7.16,36.85-9.89,56.01-11.74,1.98,1.57,4.42.15,7.05.06,13.43-.44,19.54-.19,31.98.72Z"/>
  <path class="st66" d="M463,869c.06.38-.16.76-.14,1.13l-19.81-.07c-1.53,7.95,2.22,20.76-3.02,22.5-1.89.63-4.05.3-5.13-1.1-.85-1.1-1.9-4.19-.96-5.45,2.35-3.16-.58-14.37,5.31-13.42,1.67.27,1.49,2.77,2.27,4.5,1.39-2.51-.35-5.49,1.31-7.77,6.29-1.27,13.76-.97,20.16-.31Z"/>
  <path class="st120" d="M463.29,880.07c.64-2.54,2.16-5.11,3.34-8.21,3.74,2.25,2.55,6.29,4.04,10.19l.29-38.07c2.52,14.16.23,28.99,1.02,43.99.14,2.58-1.79,4.44-3.69,4.75s-4.7-.25-5.08-2.85c-.48-3.29-.66-6.89.07-9.79Z"/>
  <path class="st115" d="M319.92,635.15l3.08-.15c2.87-.64,8.69-.6,9.07,3.01,3.45-.68,7.13-.1,11.04,1.74,3.9,1.31,8.06.99,12.49-.98,0-3.9-.42-7.83-1.26-11.78l1.68-5.01c-3.13-.57-2.99-9.16,0-10v-2c1.94,12.04,2.77,24.34,6.21,36.72-15.37-1.98-29.21-5.84-42.3-11.57Z"/>
  <path class="st97" d="M508.66,889.95c-4.25,1.72-11.88,2.37-16.87-.02.69-1.56-1.52-2.5-1.64-3.92-.18-2.16,4.1-3.24,5.88-2.73,1.74-1.29,6.3-1.7,8.76-1.81.82-.04,1.63.23,2.4.5,4.32-.57,5.11,6.62,1.87,5.73l-.4,2.25Z"/>
  <path class="st82" d="M326.96,353.85c.37.37.71.75,1.04,1.15-1.21.93-3.8-.24-4.74.78s.59,2.33,1.13,2.21c4.54-1.04,3.17-2.22,4.95-2.07,2.21.19-1.59,3.16-7.13,2.92.4-2.89-15.06,2.66-4.15,2.63-2.49,2-5.68.76-9.08.52-.65,2.47,1.66.97,3.49,2.72-2.89,2.41-6.07,3.74-9.26,4.42.15-.67-1.34-1.67-1.97-1.9-1.76-.64-5.86,5.09-8.26,2.84,10.12-7.7,22.4-11.56,33.99-16.22Z"/>
  <path class="st113" d="M555.98,863.01c1.65-.08,2.36,2.18,2.26,3.47-.08,1.1-.6,3.27-2.14,3.3-5.82-.12-11.54-.38-17.14-.79-.49-1.3-1.65-5.09-.02-5.49,6.03-1.13,11.65-.22,17.05-.49Z"/>
  <path class="st92" d="M518.64,879.02c-.37,3.71-6.54,9.53-9.98,10.92-.3-.44-.91-.74-1.25-1.02-.99-.82,1.5-1.21,1.86-1.74-.02-1.82-1.21-3.75-2.08-5.22-2.08-2.19,1.38-6.19,3.99-4.86,5.51.11-.46-5.57,4.24-5.85,1.06-.06-.24,1.53.06,2.13,1.03,2.05,2.66,3.51,3.16,5.63Z"/>
  <path class="st128" d="M715.1,359.98c.28.68.61,1.34,1,1.97-9.1-3.19-17.33-8.58-26.9-10.07-.5.77-1.15,1.35-2.03,1.64-.69.22-12.37-3.68-13.86-4.35l-1.3-2.16v-1c14.99,1.71,29.4,7.72,43.1,13.98Z"/>
  <path class="st23" d="M572.37,839.34c2.41-1.27,5.51-.89,6.99,1.55,1.21,2,.95,5.18-1.88,7.06-1.92,1.28-4.71.92-6.48-1.44-1.63-2.18-1.53-5.64,1.37-7.16Z"/>
  <path class="st4" d="M575.06,421.84c.98,1.39.96,2.12-.06,2.19-4.93-.81-9.72-5.19-10.99-10.02-4.06.2-7.67-4.83-9.16-8.23-2.65,1.07-5.62-2.4-5.02-5.05-.04-.58-.03-1.17.03-1.75,9.17,6.65,17.24,14.82,25.2,22.85Z"/>
  <path class="st119" d="M586,434c6.76,7.71,13.36,15.53,19.18,24.01-1.39-.05-3.13-.49-3.51-2.29-.11-.53-.03-1-.2-1.22-.36-.46-1.06-.36-1.48-.46-3.86-.08-6.01-4.52-6.04-8.05l-2.24.41c-1.65-2.27-2.89-4.74-3.73-7.4-3.2,1.65-6.06-2.53-3.95-5.25-.01-.92.64-.84,1.96.25Z"/>
  <path class="st131" d="M579.05,860.7l-.29,29.39c-.56.38-.72-.45-.72-1.14l-.04-28.81c.72-.33,1.29-.1,1.05.56Z"/>
  <path class="st6" d="M586,434l-1.96-.25-2.24.18c-1.01-2.1-2.21-4.15-3.59-6.15-2.25.43-4.6-1.47-3.2-3.76l.06-2.19c3.86,3.9,7.35,8.07,10.94,12.16Z"/>
  <path class="st78" d="M560.08,848.06c-7.05,2.24-14.75.26-22.11.98.34-.46.92-1.11,1.96-1.11l20.15.12Z"/>
  <path class="st100" d="M556.09,869.78l-17.1.3-.04-1.09,16.02.09c.69,0,1.5.13,1.13.7Z"/>
  <path class="st46" d="M537.11,849.9c-.08,4.04-.32,8.09.18,12.11-.36,1-.97,1.29-1.56.13,1.34-4.44-1.4-9.22,1.39-12.24Z"/>
  <path class="st92" d="M519.21,877c-1.82-2.82-.9-5.94,0-9,.57,3.24,1.91,6.31,0,9Z"/>
  <path class="st29" d="M684.93,642.9c-1.23.34-3.74.43-4.83,1.04.33-.9.7-2.1,1.72-2.45,1.21-.41,2.49.37,3.11,1.41Z"/>
  <path class="st127" d="M221.18,491c-.03-2.36-.97-5.01.59-7-.03,2.3,1.19,5.24-.59,7Z"/>
  <path class="st79" d="M260.01,488h-1.09c.69-1.92-.99-4.67,1.13-6.05l-.03,6.05Z"/>
  <path class="st128" d="M696.32,391.79c-1.93.95-3.03-1.26-4.4-1.71.78-.1,1.61-.17,2.5-.09.78.07,2.84.35,1.9,1.8Z"/>
  <path class="st122" d="M714.12,632.74c-.98.82-2.33.73-3.29,1.28-1.68-.56.07-1.21.59-1.38.79-.25,2.61-1.1,2.7.1Z"/>
  <path class="st126" d="M515.91,617.9c2.1-1.71,2.53-1.46,2.09,1.21.98-.08,1.96-.12,2.93-.03,4.18.4,19.03,7.66,23.94,10.25,1.67.88,2.97,2.28,4.13,3.75,3.77-1.08,11.21.71,13,4.12,12.43,2.84,24.95,5.19,37.57,7.05l4.51,2.55c.92.28.95.63.08,1.04-8.86,24.3-27.44,44.47-51.03,55.96-12.8,6.23-31.08,9.82-44.97,8.9-40.58-2.68-73.64-28.78-87.18-65.79,2.06.25,3.96-.72,5.88-.77l4.14-.1c.62-.59,1.96-.88,4-.86,5.08.74,10.24-2.95,15-3.04,5.43-.11,9.88-3.23,14.87-4.12,5.39-.96,9.84-3.4,14.93-4.97,2.9-3.86,10.13-7.26,14.92-6.07l1.2-2.73c5.5-2,10.85-4.32,16.05-6.96l2.91.54c.41-.88.75-.86,1.03.06Z"/>
  <path class="st67" d="M643.7,648.9c-8.34-.18-16.73.57-24.94-.84-3.86-1.74-1.19-7.6,1.21-10.2,4.87-2.91,8.86-6.53,11.97-10.87-.17-4.05.53-7.74,2.09-11.08-2.49.35-4.18-.03-3.03-2.71,5.52.23,11.68-1.38,17.4.73,2.53,1.61,3.5,7.93,2.41,10.62l-5.2,12.85c-.89,2.2.42,6.15,2.13,7.76,2,1.88,4.91-.15,7.3,1.36-1.86,1.88-10.92-1.84-11.35,2.38Z"/>
  <path class="st19" d="M624,612c2.17,1.35,4.42,1.09,7,1.2.47,1.57,3.49.16,4.36,1.09,2.12,2.28-1.64,5.4-1.35,7.31.82,5.34-.24,7.64-3.72,10.76-10.25,9.2-10.95,5.14-11.54,15.69,4.2.72-17.81-1.58-14.59-.21.11-.3-.14-.72-.08-1.04-.18-1.59,1.02-2.86,3.6-3.82-.82-2.47-.32-5.24,1.51-8.31.41-4.65,2.08-8.28,5.01-10.88.94-3.82,3.41-6.72,6.83-8.61-2.76-.02-4.87-.58-3.06-3.3,1.68.33,4.49-.86,6.03.1Z"/>
  <path class="st126" d="M603.7,344.05c-31.9,2.92-63.73,13-91.65,28.62-.24.92-.59.96-1.06.13l-5.94-.99c-22.43-12.02-46.69-20.48-71.76-24.84l-5.29-2.88c-2.33.75-4.33.72-6-.09.08-.33-.14-.8,0-1.11,9.42-21.6,25.44-39.89,46.61-51.26,32.26-17.34,70.6-14.72,100.04,6.8,16.17,11.82,27.75,27.66,35.06,45.62Z"/>
  <path class="st54" d="M529.96,384.95c1.31,1.82,2.17,4,2.6,6.53-2.29,7.88-5.92,15.38-10.9,22.51,2.51,4.26-2.14,6.14-5.49,4.07-1.36,2.55-3.36,1.83-3.27-1.05-2.49.23-4.89-1.01-7.21-3.7-2.84-1.26-4.43-3-4.78-5.25.59-.76,1.44-1.22,2.53-1.38l8.36,4.45c-.67-2.14-.75-4.21-.22-6.21,8.89-8.45,13.55-20.28.72-27.64l-.63-2.2c-2.72.72-3.07-.78-.67-2.28.31-.13.77.03,1.06-.13,7.92,6.14,9.1,5.4,17.91,12.28Z"/>
  <path class="st83" d="M538.02,390.91c1.54,6.89-9.09,23.97-13.4,29.74-.99-.67-2.41-1.48-3.17-.97-.51.34,1.1,1.82-.22,2.2-2.35,2.02-8.1-1.16-5.06-3.82,1.24-.97,2.78-.85,4.93-1.23-.7-1.08-1.07-1.73-1.55-2.71-.34-.71,9.48-15.42,11.02-21.11.64-2.38-2.81-5.85-.61-8.06,2.54,1.99,6.13,3.1,8.06,5.96Z"/>
  <path class="st126" d="M516.17,418.06c.46,2.32,4.17,2.27,5.06,3.82,1.31,2.27,4.45,2.71,5.94,4.29,2.94.03,9.25,4.7,11.43,7.02l.38,2.75c2.89-.72,4.68.85,5.38,4.73l2.47,3.19c2.5-1.31,2.94-.43,2.3,1.97,3.66,1.83,10.26,5.91,8.94,10.21,2.77.26,4.51.81,3.87,3.87,2.52,2.56,5.22,5.09,8.11,7.58l-.17,2.44c.9,3.8,4.35,6.25,6.36,9.27,2.33,3.5,3.92,7.64,6.75,10.86,1.29,1.47,1.19,4.36,2.23,5.79l-.94,5.57c-8.96,15.03-19.97,28.61-31.25,41.92-.55.65-1.36,1.09-2.21,1.55s-1.78.81-2.72,1.11c-1.06,2.33-4.72,6.32-7.11,8.41-7.18,6.28-14.34,12.23-22.23,17.62-1.43.98-3.18,1.2-4.89,1.18l-13.9-8.18c-1.9.55-4.17-.82-2.94-3-1.16-1.08-2.28-2.72-3.99-3.06-2.32-2.68-5.41-5.31-8.08-7.04-1.25-.81-2.38-4.28-4.31-3.99-2.75-3.26-5.5-7.3-9.43-9.02-1.85-4.39-5.79-7.82-9.18-10.97-.36-2.54-4.34-4.66-5.13-6.67-1.56-3.98-4.82-6.51-7.03-9.96-2.91-4.54-4.99-9.8-8.67-14.42,1.11-2.4,1.75-4.18,2.81-5.99.07-2,.24-4.06,1.18-5.86,5.13-9.82,14.26-20.75,21.6-29.23,9.57-11.06,20.28-23.07,33.24-29.74-.13-.51-.24-1.01-.24-1.52-.02-.96,8.98-7.11,10.7-7.96l2.41.42,3.27,1.05Z"/>
  <path class="st126" d="M419,381c3.46-.71,7.13-.35,10.99,1.08.59-.44,1.2-.85,1.86-1.14,5.78-2.5,36.94,9.89,44.32,13.27l2.42,3.13c1.38.1,1.36.43.09.81.44,2.57-.13,3.16-2.61,2.06l-2.51,4.33c-15.96,12.07-30.06,26.54-41.54,42.94l-4.23,2.67c1.69,2.62-2.36,5.93-4.79,7l-1.07.03c-.13-3.28-2.38-6.11-3.05-9.2-1.58-7.34-3.94-14.53-4.85-21.99-1.06-.29-1.33-1.29-.8-3l-.19-1.85-.99-12.15c-.12-9.29-.9-18.63.7-27.81,1.99.31,4.23-.39,6.25-.19Z"/>
  <path class="st35" d="M500.04,426.07c-22.07,18.69-41.44,39.72-56.02,64.82-1.58-.58-3.08.23-4.21,2.85-5.97-9.01-14.75-24.75-16.82-36.58-.39-2.96,3.47-4.99,4.79-7,1.27-.51,2.45-.17,3.56,1.02,4.89-2.97,8.62-7.24,11.19-12.83l9.16-4.94,3.96-6.17,2.4-.23c8.4-12.3,24.58-16.25,34.86-3.86-.96,2.78-.18,3.59,2.33,2.42,2.29-2.58,5.35-3.48,4.79.5Z"/>
  <path class="st104" d="M672,347c5.98.43,11.34,3.96,17.2,4.87.33,4.39,5.23,1.66,7.7,4.55.46.54.93,1.91.13,2.65-2.55,2.39-6.12,1.76-9.63,2.31.05,4.73-2.68,8.34-6.44,10.67-6.2,3.84-2.11,7.38-3.69,10.39-.43.82-2.29.45-3.18.6-2.45.4-3.8-.84-4.12-2.99-.15-1.01.02-2.38,2-3.65-6.31-4.31.08-5.98-5.28-19.04-1.45-3.53-.42-7.76-3.17-11.15,3.78-.77,5.83.59,8.48.78Z"/>
  <path class="st122" d="M701.3,607.51c-.25,2.08-1.85,1.61-2.7,1.44-.57-.11-1.13-.85-1.64-1.78,1.64-.18,2.67-.64,4.34.34Z"/>
  <path class="st81" d="M392,344c4.63-.82,10.61-.9,15,.15.76,1.04.67,2.19-.28,3.45,1.27,5.44,3.5,10.45,6.68,15.03l.38,3.32c2.22,1.92,3.34,4.94,3.34,9.06,5.58.49,7.47,2.05,5.68,4.67-.49,1.21-2.9,1.19-3.81.3-.32-.07-.67.03-1,0l-5.02-1.14c-.29-.05-.64-.09-.93-.05-2.24-.99-5.06-1.61-8.47-1.86-6.72-5.55-13.95-10.43-21.68-14.65l.34-2.3c-2.28-1-2.09-3.39.6-7.17-.48-5.71.42-7.88,6.34-8.9.92-.05,1.88.07,2.81.08Z"/>
  <path class="st123" d="M412.05,378.81c-4.2.64-8.45.06-13.04-.71-7.55-1.26-15.59,1.79-22.94-.53-3.63-1.73-6.33-7.33-9.5-9.93-1.28-1.05-.43-3.7-1.39-4.66-.6-2.6,1.13-2.67,3.35-2.22,3.24,1.81,6.19,2.13,8.85.95,1.61-1.8,3.23-2.38,4.86-1.71,6.87,5.73,5.6,2.58,10.02,6.85,4.9,1.37,8.43,4.36,11.79,7.97,2.11,2.26,7.99-.36,7.99,3.99Z"/>
  <path class="st75" d="M389.19,343.92c-7.24,4.34-2.82,6.52-4.87,10.69-.94,1.91-2.46,3.4-2.07,5.39-8.39,9.7-12.09.63-17.06,2.98-.86-.86-5.88-15.13-3.37-16.56,9.04-1.39,18.25-1.98,27.37-2.5Z"/>
  <path class="st123" d="M422.81,379.7c2.08-2.33,8.25-1.27,7.18,2.39l-10.99-1.08v-1c1.13.23,2.76-.58,3.81-.3Z"/>
  <path class="st123" d="M418,380c-1.69-.14-4.26.82-5.02-1.14,1.67.27,4.03-.54,5.02,1.14Z"/>
  <path class="st0" d="M463,869l-20.16.31c.15-.73.89-1.4,2.09-1.4l16.12.06c1.04,0,2.02.24,1.95,1.02Z"/>
  <path class="st134" d="M435,645.18c-.77,1.51-2.72.83-4,.86.03-.5-.24-1,.26-2.13,1.24,1.02,2.48,1.09,3.74,1.27Z"/>
  <path class="st36" d="M356,612v10c-.57,7.26-5.86,10.15-12.54,10.83-2.68,4.14-6.95,4.99-11.39,5.18-2.79-1.23-6.73-.52-9.07-3.01.66-.3,2.03-.43,1.66-1.47-.21-.57-1.28-.89-1.68-1.47-1.48-2.16-.01-4.74-.08-7.15-.34-12.72,7.94-11.67,9.47-19.93,3.3,2.71,6.54.88,9.78,1.25,2.85.33,5.45,2.19,8.65,2.05,2.75-.13,4.35,1.77,5.2,3.72Z"/>
  <path class="st99" d="M414.03,426c-.99.21-2.41.11-1.93-1.31.17-.51.63-1.14,1.13-1.69,1.16.54.67,1.98.8,3Z"/>
  <path class="st126" d="M606.9,539.9c-.63,3.91,2.94,7.55,3.15,11.06.27,4.52,2.24,8.61,2.78,13.04l1.93,15.92c.72,5.95.75,12.25.26,18.16l-1.07,12.84c-.62.78-1.34,1.61-2.31,1.78-5.33.93-28.78-5.16-35.27-7-5.19-1.47-23.26-6.77-26.22-9.83-.75-.78-.99-1.84-1.07-2.89,4.14-6,9.33-11.32,15.57-15.97,13.18-13.56,19.77-20.34,19.77-20.34,3.82-5.53,8.34-10.02,13.58-13.46.83-2.55,1.74-4.95,2.74-7.21l2.99-1.05c.69,1.28,3.17,3.32,3.17,4.94Z"/>
  <path class="st62" d="M549.09,592.99c16.15,9.48,48.02,16.41,64.87,17.93.39.03,1.27.72,1.03,1.03,2.79-.13,2.3,3.92.46,4.97-8.41,4.76-33.69,12.86-43.13,13.27-1.81.08-3.53-.41-5.16-1.18l-.57,2.11c-5.85,1.13-11.71,1.78-17.59,1.96-10.63-3.96-20.87-8.9-31-13.98l-.93-.8c6.32-7.72,13.75-14.45,22.28-20.2,2.38-3.02,4.94-4.69,7.67-5.01.49-1.91,1.38-1.96,2.07-.11Z"/>
  <path class="st42" d="M617.97,611.9c.24,2.5,5.9-.02,6.05,2.61.16,2.85-5.85,2.27-7.89,9.77-.46,1.71-3.2,2.52-3.54,4.47-.71,4.04-1.69,8.56-3.89,11.66.34,1.03,1.26,2.27.99,2.95-1.09,2.84-3.46,2.18-5.61,3.45-14.32-1.53-28.6-4.63-42.08-9.6l2.05-1.79c4.88,1.33,7.17.99,6.88-1.03-3.46.21-6.92-2.73-3.78-5.36,16.05-2.4,31.78-7.21,47.17-13.65,1.12-.47.2-2.8.67-3.42.97.06,2.01-.25,2.98-.06Z"/>
  <path class="st98" d="M599.95,523.85c.99,1.39.82,3.55,1.11,5.01-3.19,4.86-9.87,8.58-15.62,10.95-8.18,7.78-16.31,15.82-24.39,24.13-3.21,1.35-6.03,3.24-8.46,5.66-6.36,1.37-12.48,3.97-18.35,7.81-3.78.56-6.86,1.82-9.24,3.76-.88.45-1.9-.27-3.06-2.18-1.87,2.36-5.86.25-4.73-2.6-1.71-1.95-2.07-2.56.32-3.76,8.2-4.31,16.57-8.22,25.11-11.74,12.1-8.78,24.34-17.39,36.73-25.84,5.63-4.94,11.39-9.68,17.29-14.23l2.4.28c.34.85.36,1.99.9,2.75Z"/>
  <path class="st2" d="M601.06,528.86c1.7,1.65,2.17,3.9,2.67,6.09-1.67,2.9-3.7,5.6-5.73,8.26-2.93-.33-5.9,1.02-8.9,4.07l-5.99,5.54c-1.54-.68-2.09-.46-1.43.89-6.48,4.56-12.69,9.41-18.61,14.55-6.62,2.69-12.67,6.28-18.15,10.78-3.84,2.05-12.6,6.24-15.92,3.86-2.28,2.11-3.9,1.33-4-1.73l-.99-3.35c13.67-2.62,6.52-1.68,18.2-6.69,3.21-1.38,5.33-4.36,9.85-2.71,1.53-4.53,6.55-4.41,8.93-7.04,5.58-6.18,12.07-11.1,16.86-17.46,3.29-4.37,6.5-6.16,11.39-7.92,4.28-1.55,7.12-6.87,11.83-7.13Z"/>
  <path class="st15" d="M483.91,598.02c.76-.35,8.79,2.75,9.13,3.12.51.55.41,1.31.1,2.02,2.32.54,3.24,1.36,2.75,2.48-1.18,5.61-1.75,11.3-1.71,17.07,2.7,1.25,2.42,2.43.55,4.28-5.03,2.36-9.58,4.42-14.92,6.07-.55-1.06-2.36-.6-2.57-1.83,1.99-.21,2.84.18,3.75-.6,1.01-.87-1.54-1.42-1.46-2.07,0,.03,1.41-25.65,1.35-26.53-.13-2.08,1.28-3.94,3.02-3.99Z"/>
  <path class="st50" d="M517.21,576.39c1.45,1.07,3.14,1.76,4.73,2.6,2.71,2.08,3.62,3.92,2.72,5.52-2.06,5.3-24.34,27.96-31.51,18.65-3.8-2.29-6.54-5.23-9.23-5.14l.08-1.17c3,.73,7.37,4.55,10.52,2.63l12.17-12.78c3.31-3.47,7.77-5.69,10.05-9.55l-3.15-1.25c-.76-.3-.52-1.07.19-1.94,2.29-2.1,3.94-.61,3.43,2.42Z"/>
  <path class="st21" d="M596.18,516.02c.57,1.91,2.14,3.25,2.88,5.08-5.56,6.75-9.35,6.08-15.79,13.37-1.61,1.82-20.44,14.61-24.39,17.31-2.53,1.73-4.97,2.53-7.4,4.69-10.96,9.76-11.42,7.04-16.33,9.56l-13.19,6.77c-2.02,1.04-5.17.71-4.75,3.59-1.13-.83-2.16-1.81-3.43-2.42.05-.25.08-.51.09-.77,10.85-7.53,21.32-15.6,30.92-25.22,1.03-1.04,2.55-1.3,3.3-1.98.75-.75,1.55-.85,2.32-.16,11.29-9.99,23.45-20.13,36.46-30.42,5.07-3.74,8.17-3.54,9.31.61Z"/>
  <path class="st130" d="M590.13,503.16c1.34,3.41,3.36,6.6,5.51,9.56.21,1.08.22,2.24.54,3.3-2.24-6.37-20.16,10.42-22.98,13.1-3.86,3.66-7.4,7.33-12.12,9.91-2.72,1.49-4.15,3.65-6.11,5.67l-10.81,11.15c-2.95-3.3,7.33-7.78,3.92-9.85,13.73-15.85,26.74-31.8,37.12-50.16,1.9,2.23,3.82,4.52,4.92,7.32Z"/>
  <path class="st80" d="M505.08,570.92c3.08,4.47,3.39,6.53.92,6.21-3.77.21-16.73,13.18-19.55,17.38-4.24-2.7-9.43-.25-10.51-6.75-.4-.38-.72-.76-.7-1.12.07-1.36,15.33-20.92,16.48-21.65,1.91-1.21,6.36-1.33,8.25.05.71,2.67,3.23,4.04,5.11,5.89Z"/>
  <path class="st116" d="M497.03,562.02c1.03.96,2.54,1.48,2.94,3-1.32,2.14-5.15-.25-6.86,1.33.49-.45-14.38,19.87-17.17,21.4-1.06-1.16-2.88.76-3.83-.96-.15-1.48,1.88-1.22,2.59-1.74-.25-1.93-.75-4.08,1.75-4.8,1.53-10.36,11.38-11.49,11.77-19.25,2.93,1.42,6.1,2.44,8.82,1.02Z"/>
  <path class="st116" d="M506,577.12c2.4-2.45-3.06-2.87-.92-6.21,1.22,1.2,3.08,2.34,4.07,3.63.14,1.21-.02,2.39.95,3.34-2.01.39-2.79-.84-4.1-.76Z"/>
  <path class="st103" d="M599.99,454.05c1.06,1.91.01,4.49-2.43,5.69-5.86,2.87-10.84,6.68-16.07,10.84-11.24,3.1-8.06-1.84-11.63-.65-3.39-2.52-5.75-6.41-7.93-10.02-.24-3.16,1.53-2.67,5.32,1.45,4.07,1.27,7.66.1,10.77-3.51,4.1-1.73,8.07-3.72,11.91-5.98.7-3.12,2.04-5.07,4.02-5.86,2.17,2.5,4.43,5.15,6.04,8.05Z"/>
  <path class="st136" d="M549.83,400.73c1.95,1.2,3.86,3.37,5.02,5.05.71,9.08-5.06,18.12-11.81,24.39-.65,3.4-2,5.33-4.06,5.77-4.1-3.03-8.51-5.78-11.81-9.77,1.82-1.46,4.75-.61,6.27-2.57,4.85-6.26,9.74-12.18,11.15-19.9.26-1.42.71-3.06,2-3.52.85-.31,2.28-.04,3.24.55Z"/>
  <path class="st126" d="M511.18,877.11l-3.99,4.86c-2.55,3.1-7.38,2.39-11.16,1.31-3.38-1.81-6.02-4.77-6.62-8.46-.52-3.2-.14-8.77,2.59-11.08,5.18-4.38,14.17-3.81,17.83,2.05,2.33,3.73,1.23,7.71,1.35,11.33Z"/>
  <path class="st10" d="M412,344h7c2.93.92,6.03.7,9,.09,29.17,4.34,57.35,14.18,82.99,28.71-.15.82.68,1.55.67,2.28.98.4,1.72.93,1.96,1.99,1.97,8.49-1.66,20.49-8.22,26.4.49,7.67-11.27,1-15.13-1.28-.24-.14-.28-.64-.25-1.23-.53-2.11.39-2.47,2.74-1.09.2-1.41.87-2.68,2.02-3.8,6.41-10.49,8.84-14.53-1.53-23.26-6.02-5.07-14.06-8.14-21.53-10.23-2.65-2.41-5.89-3.31-9.72-2.68-6.25-3.53-13.34-4.83-21.26-3.9-8.74-1.8-22.24-1.89-24.88,8.61l-2.08,1.37c-8.69-8.81-4.22-9.27-8.2-14.72-1.81-2.48-.86-5.76,1.41-7.09.76-1.08,3.64-.79,5-.15Z"/>
  <path class="st75" d="M412,344l-5,.15-15-.15c-.08-.77.91-1.02,1.95-1.02h16.1c1.04,0,2.02.25,1.95,1.02Z"/>
  <path class="st75" d="M422,344c1.98,0,4.03-.2,6,.09-2.4,1.55-6.7,1.67-9-.09h3Z"/>
  <path class="st56" d="M332.07,638.01c1-1.46,2.63-2.98,4.88-2.77,2.88.26,3.19-2.24,4.69-3.53,3.93-3.41,6.29,2.45,14.36-9.71,0,7.74,2.96,15.86,1.37,17.92-.85,1.11-2.55.77-4.54,1.34-1.07.31.73,1.62,1.16,2.46-7.88-.78-15.18-2.72-21.92-5.71Z"/>
  <path class="st24" d="M564.01,414.01c3.87,3.1,7.47,6.44,10.99,10.02,1.11,1.13,3.12,1.9,3.2,3.76,4.79,4.05,3.06,8.07-5.18,12.05-5.04,2.05-9.36,4.83-12.94,8.33-3.66,1.68-7.74.08-10.96-2.34-1.23.07-1.5-1.57-2.3-1.97-4.65-4.3-4.88-7.68-.7-10.13-.14-3.62,2.28-6.68,7.28-9.18l3.25-3.34c1.54-7.48,3.99-9.89,7.35-7.2Z"/>
  <path class="st14" d="M554.85,405.78c3.94,1.08,6.17,5.84,9.16,8.23-9.35.96,3.56,4.23-14.32,15.69-.77.49-1.51,1.44-2,2.08-.34.44.71,1.22.63,2.05-.33,1.85-3.36,2.45-3.58,4.41-.23,2.08,1.74,3.87,2.09,5.63-3.38-1.66-5.07-5.87-7.85-7.92.75-1.93,1.29-5.46,2.6-7.1,2.99-2.1,4.39-3.5,5.73-6.83s5.09-6.27,5.49-10.28c.13-1.25-.67-2.66-.35-3.75s1.25-1.86,2.4-2.2Z"/>
  <path class="st13" d="M584.04,433.75c1.05,1.75,2.07,4.15,3.95,5.25,3.14,3.61,2.58,4.83-1,7.39-6.4,3.3-12.84,6.52-19.32,9.67-3.74,1.78-6.94,1.78-9.61-.02-2.84-3.53-6.58-6.34-8.94-10.21-1.64-1.92,9.61,3.65,4.5-.75-.67-.57-.78-1.33-1.66-1.7,3.07-.67,4.1,1.31,4.81,4.06,3.55-.71,4.2-3.9,6.79-4.98,5.91-2.48,11.13-5.74,16.11-9.94l-1.47-4.73c2.54,1.05,4.39,3.56,5.83,5.97Z"/>
  <path class="st105" d="M593.96,446c.2,2.72-2.25,4.34-1.32,7.96-4.46-1.28-6.77,3.45-10.08,4.3-3.67.94-4.47,1.8-7.09,4.27-2.36,2.23-9.83,1.44-11.03-.72l-1.21-2.19c-.17-.3-.84.11-1.3.29-1.68-.67-2.77-2.49-3.87-3.87,6.35-.8,12.38-2.23,19-7.01,4.98-3.59,13.85-3.98,10.92-10.02,2.78,1.62,3.91,4.64,5.97,6.99Z"/>
  <path class="st106" d="M535.95,587.97c3.46,1.51,4.88,3.2,4.24,5.07-5.35,7.98-12.05,15.04-20.1,21.17-1.39,2.26-2.78,3.49-4.18,3.69-.26-.16-.73.03-1.03-.06-1.67,1.46-12.58-5.85-12.82-6.56-.28-.85-.19-1.71.13-2.54.62-1.99,2.91-2.28,6.88-.89,3.68-1.9,6.79-5.27,9.32-10.13,4.62-3.99,8.42-8.46,11.39-13.41,2.85-2.03,7.2-.12,6.17,3.66Z"/>
  <path class="st65" d="M495.89,605.64c2.07-1.68,7.2-.37,6.3,3.1,3.83,3.63,9.07,5.23,12.69,9.1-6.22,4.16-13.6,6.06-20.15,9.14-1.28-.41.44-1.65-.25-2.05-.74-.43-1.34-.25-2.6-.29,1.53-9.53-.5-6.7,1.62-18,1.18-.33,1.78-.53,2.4-1Z"/>
  <path class="st60" d="M567.15,629.02c.2,1.02.57,2.07,1.4,2.88.73.71,1.96.59,3.65.25,1.02,1.46.57,3.45,1.48,5.42,4.93,0,9.94-2.14,15.17.63-9.58,2.51-18.08-.15-26.86-.99-4.36-.42-8.89-2.59-13-4.12.64-1.45,2.57-1.73,4.31-1.99l13.85-2.07Z"/>
  <path class="st108" d="M547.02,593.1c-2.52,3.4-6.01,6.4-9.73,9.17l-12.03,8.92c-3.23,2.4-6.64,4.02-7.26,7.92-.72-.36-1.4-.79-2.09-1.21-1.87,2.02,11.24-12.38,7.35-8.68,4.74-4.52,14.6-13.22,15.41-18.09.24-1.42-1.84-1.55-2.72-3.16,4.11-1.59,9.68.93,11.07,5.13Z"/>
  <path class="st68" d="M484,399l16.73,7.94.19,1.12c4.46,2.11,8.55,5.43,11.99,8.95-3.54,3.88-8.99,5.78-12.86,9.06-.65-.72-1.41-1.13-2.04-.54-.4.37-1.02,1.87-1.53,1.91-5.06.46-9.11,3.22-9.48.11-.28-2.36,5.7-2.3,4.22-3.49-.44-.35-.72-1.43-1.46-1.78-9.5-4.5-9.15-8.9-25.14.17-2.34,1.33-5.33,2.3-6.54,4.56-.75-.37-1.73-.88-1.74-1.59-.06-4.51,15.36-18.16,19.32-21.06-.83-1.66-1.26-2.76.42-4.15.89-.64,1.36-1.91,2.61-2.06,1.32-1.59,4.24-.83,5.32.85Z"/>
  <path class="st17" d="M500.91,408.06l-11.55-5.48c-2.14-1.02-4.65-1.37-5.36-3.58.43-.58,1.1-.58,2,0,2.13-1.36,3.78-.48,4.02,1.96,2.29,2.37,5.7,2.3,8.64,4.4,1.32.95,2.65.9,4.33.38,1.05-.33,0-2.75.66-3.43,2.92-2.13,4.21-5.72,6.15-8.46,2.37-3.34,1.6-5.3,1.68-9.18l.19-9.59c8.36,1.51,11.34,12.22,10.42,17.96-.85,5.36-6.25,8.2-8.68,12.63-1.21,2.21,1.95,5.95-.69,8.12-3.98-1.62-7.57-4.96-11.8-5.73Z"/>
  <path class="st40" d="M492.76,399.86c-.89.12-1.7,1.25-2.74,1.09-1.33-.3-2.85-1.03-4.02-1.96-2.42-1.14-4.89-1.69-7.41-1.65-15.86-6.32-31.73-13.61-48.6-15.27-1.86-1.93-4.93-1.04-7.18-2.39-1.57-4.18-6.99-.27-7.76-4.9-.53-3.15-1.13-6.05-1.26-8.83l1.39-1.67c12.57,3.94,25.41,6.91,38.53,8.91,6.07,1.54,20.72,5.97,25.44,9.42,3.88,2.83,11.03,11.17,13.83,15.16l-.21,2.07Z"/>
  <path class="st89" d="M458.06,427.01c-6.8,12.68-3.58,5.14-14.06,12.65-3.33,5.98-6.88,11.89-13.96,14.18-.93-1.28-1.32-2.77-2.26-3.68,12.67-19.22,29.58-36.54,48.28-49.94.45,1.48,1.49,2.73,1.88,4.82l-8.68,7.25c-2.88,2.4-11.45,11.75-11.21,14.72Z"/>
  <path class="st10" d="M486,399c-.63-.13-1.39.18-2,0-1.75-.51-3.49-1.06-5.32-.85-.61-.19-.59-.47-.09-.81,1.9-2.14,5.4.06,7.41,1.65Z"/>
  <path class="st68" d="M489.57,430.86c.22,1.49-.9,2.14-1.62,2.54-.84.47-1.85.14-3-.68-.9.28-1.6.42-1.97-.22-.3-.52-.12-1.59.99-1.4,1.96.41,3.09-.41,5.59-.25Z"/>
  <path class="st28" d="M598,543.21c-14.16,18.6-30.53,35.24-48.91,49.78-.69.07-1.38.11-2.07.11-3.56-1.95-7.31-3.59-11.07-5.13-1.52-1.96-3.92-2.75-6.17-3.66-1.1,0-1.36-.48-.79-1.42,2.44.64,10.36-4.44,12.73-4.85,3.2-.56,4.03-2.43,6.28-4.04,10.56-7.56,10.38-2.93,18.46-11.61-1.91,2.05,18.71-14.32,14.56-10.34,3.76-3.6,6.88-6.91,11.49-9.57,2.3-1.32,3.75-4.3,6.6-4.13-.51,2.33-1.23,3.53-1.11,4.86Z"/>
  <path class="st49" d="M525,581.17c1.29.48,2.7,1.38,4,1.73.18.52.45.99.79,1.42,1.65,7.14-5.84,8.62-12.09,17.55-2.23,3.19-3.74,7.67-8.54,7.97-2.47.16-4.77-1.36-6.96-1.1-1.53-1.45-4.57-1.87-6.3-3.1-.97-.69-1.74-1.87-2.75-2.48,5.69,1.11,10.65.23,15-4.14,2.15-2.16,16.17-15.19,15.37-17.1-.43-1.02-1.02-2.01-1.57-2.92,1.09.57,1.89,1.74,3.06,2.18Z"/>
  <path class="st69" d="M492.76,399.86c-.69.83-8.28-8.96-9.42-10.4-7.46-9.46-15.62-8.83-18.43-10.31-9.37-4.96-27.08-6.4-32.37-7.83l-9.62-2.6-9.14-2.75c-.2-3.98,3.28-9.27,7.17-10.69,6.8-2.48,13.3-2.93,20.04-1.28.24.06,12.6-.12,15.91,1,3,1.02,5.26,4.21,9.06,2.96,3.21-1.05,5.4,2.9,7.48,3.06,4.49.34,7.3,3.15,10.81,4.14,5.51,1.56,9.9,5.17,13.24,9.34,2.44,3.04,5.19,3.3,4.82,8.61-.27,3.88-1.02,6.42-3.51,9.72-1.85,2.45-2.28,6.52-6.04,7.02Z"/>
</svg>